<svg width="80" height="80" viewBox="0 0 80 80" fill="none" xmlns="http://www.w3.org/2000/svg">
  <circle cx="40" cy="40" r="40" fill="#00f2fe"/>
  <path d="M56.7059 31.0588L52.4706 26.8235C52.0784 26.4314 51.5686 26.2353 51.0588 26.2353H23.5294C22.5098 26.2353 21.7647 26.9804 21.7647 28C21.7647 29.0196 22.5098 29.7647 23.5294 29.7647H50.1961L54.4314 34C54.8235 34.3922 55.3333 34.5882 55.8431 34.5882C56.3529 34.5882 56.8627 34.3922 57.2549 34L58.4706 32.7843C59.2549 31.9608 59.2549 30.6667 58.4314 29.8431L56.7059 31.0588Z" fill="white"/>
  <path d="M54.4314 45.9216L50.1961 50.1569H23.5294C22.5098 50.1569 21.7647 49.4118 21.7647 48.3922C21.7647 47.3726 22.5098 46.6275 23.5294 46.6275H51.0588C51.5686 46.6275 52.0784 46.4314 52.4706 46.0392L56.7059 41.8039L58.4314 43.0196C59.2549 42.2353 59.2549 40.9412 58.4706 40.1176L57.2549 38.902C56.8627 38.5098 56.3529 38.3137 55.8431 38.3137C55.3333 38.3137 54.8235 38.5098 54.4314 38.902L54.4314 45.9216Z" fill="white"/>
  <path d="M23.5294 38.3137H51.0588C51.5686 38.3137 52.0784 38.1176 52.4706 37.7255L56.7059 33.4902L58.4314 34.7059C59.2549 33.9216 59.2549 32.6275 58.4706 31.8039L57.2549 30.5882C56.8627 30.1961 56.3529 30 55.8431 30C55.3333 30 54.8235 30.1961 54.4314 30.5882L50.1961 34.8235H23.5294C22.5098 34.8235 21.7647 35.5686 21.7647 36.5882C21.7647 37.6078 22.5098 38.3529 23.5294 38.3529V38.3137Z" fill="white"/>
  <path d="M56.7059 49.6471L52.4706 53.8824C52.0784 54.2745 51.5686 54.4706 51.0588 54.4706H23.5294C22.5098 54.4706 21.7647 53.7255 21.7647 52.7059C21.7647 51.6863 22.5098 50.9412 23.5294 50.9412H50.1961L54.4314 46.7059C54.8235 46.3137 55.3333 46.1176 55.8431 46.1176C56.3529 46.1176 56.8627 46.3137 57.2549 46.7059L58.4706 47.9216C59.2549 48.7451 59.2549 50.0392 58.4314 50.8627L56.7059 49.6471Z" fill="white"/>
</svg> 